<?xml version="1.0" encoding="utf-8"?>
<!-- Generator: Adobe Illustrator 25.2.1, SVG Export Plug-In . SVG Version: 6.00 Build 0)  -->
<svg version="1.1" id="Layer_1" xmlns="http://www.w3.org/2000/svg" xmlns:xlink="http://www.w3.org/1999/xlink" x="0px" y="0px"
	 viewBox="0 0 742 312" style="enable-background:new 0 0 742 312;" xml:space="preserve">
<style type="text/css">
	.st0{fill:#D3C5AA;}
</style>
<g>
	<g>
		<g>
			<path class="st0" d="M37.3,37c4.8,0.5,9.6,0.8,14.4,1.5c4.1,0.6,7.1-0.6,9.5-4c5-7.1,12.3-9.2,20.6-8.6c2.8,0.2,4.3,1.3,4.3,4.3
				c0,2.2,0,4.3,0.2,6.5c0.4,4.6-1.7,7.1-6.2,8.1c-7.8,1.7-8.7,3.7-5.4,11.1c7.7,17.5,5.2,31.3-8,43.5c-8.9,8.2-19.7,10.5-31.5,9
				c-1.8-0.2-3.6-0.6-5.4-0.7c-4.2-0.3-7.2,1.2-7.8,5.8c-0.5,4.2,2,7.3,6.7,7.7c8.3,0.8,16.6,1.2,24.9,1.8c4.8,0.3,9.6,0.6,14.4,1.1
				c9.2,1,17.6,8.4,19.8,17.4c0.6,2.6,0.3,4.7-2.7,5.5c-3.7,1-7.3,2.6-11.1,2.8c-2.7,0.2-6-0.8-8-2.5c-4.3-3.7-9-5.3-14.6-5.4
				c-11.1-0.4-22.4,0-33.3-1.9C1.8,137.1-4.2,120.7,5,106.9c0.8-1.2,1.7-2.5,2.7-3.6c2.9-3.2,2.8-6.3,0.3-9.9
				C1.6,84.2-0.7,74,2.3,63C6.8,46.8,20.1,37.2,37.3,37z M39.8,55.6c-9.3,0.1-17.6,8.1-17.6,17c0,8.8,8.9,17.1,18.3,16.9
				c9.4-0.1,17.1-8,17-17.4C57.3,62.8,49.5,55.5,39.8,55.6z"/>
			<path class="st0" d="M423.2,45.8c0-8.2,0-15.4,0-22.7c0-5,0-10,0-15c0-3.3,1.5-5,4.9-4.9c0.3,0,0.7,0,1,0
				c17.8,0.3,14.7-1.7,14.8,14.3c0.2,31.8,0.1,63.6,0,95.4c0,7.7-0.3,7.9-7.8,7.8c-1,0-2,0-3,0c-7.6,0.2-7.6,0.2-11.7-6.7
				c-1.7,0.8-3.5,1.5-5.1,2.5c-23.5,15.1-56.6,2.7-60.9-31.9c-1.5-12.2,1.6-23.5,8.9-33.5c9.9-13.5,25.8-17.9,42.9-11.9
				C412.3,41.3,417.3,43.5,423.2,45.8z M376.5,79.4c0,13.4,10.5,24,23.6,23.8c12.9-0.1,23-10.6,22.9-24c-0.1-13.2-9.8-23-23-23.1
				C386.8,56.1,376.4,66.3,376.5,79.4z"/>
			<path class="st0" d="M717.1,161.1c4.4-6.7,12.7-9.5,20.1-6.7c1.5,0.6,2.9,3.5,3,5.5c0.4,7.1,0.1,14.3,0.2,21.5
				c0,16.3,0,32.6,0,48.9c0,5.9-0.7,6.6-6.6,6.6c-1.2,0-2.3-0.1-3.5-0.1c-5.3,0.2-10.7,0.6-11.8-7.4c-22.6,13.6-43.1,14-59.1-8.2
				c-12.2-16.9-10.4-39.6,2.8-55.7c6.9-8.5,16-12.6,26.9-13.4C699.5,151.4,708.7,154.9,717.1,161.1z M719.1,195.1
				c0-13.2-9.7-23.2-22.7-23.3c-13.1,0-23.8,10.4-23.8,23.2c0,13,10.9,24,23.7,24.1C709.1,219.1,719.1,208.7,719.1,195.1z"/>
			<path class="st0" d="M381.4,161c4.5-7.4,13.8-10.3,20.5-6.6c1,0.5,1.8,2.4,1.8,3.7c0.2,24.5,0.2,49,0.3,73.4
				c0,3.7-1.5,5.6-5.4,5.4c-1.8-0.1-3.7,0-5.5,0c-8.6,0-8.6,0-11.3-8c-20.4,14.3-40,14-57-4.9c-12.7-14.2-13.3-37.5-2.1-54.1
				C338.8,146,359.8,150.3,381.4,161z M336.6,195.1c0,13.2,10.3,23.9,23,24c13.1,0.1,23.5-10.5,23.6-23.9
				c0-12.9-10.1-23.3-22.9-23.3C347,171.8,336.6,182.1,336.6,195.1z"/>
			<path class="st0" d="M216.8,45.1c2.7-2.8,4.3-6,6.5-6.5c4.5-0.9,9.3-0.7,13.8,0.1c1.3,0.2,2.9,3.8,2.9,5.9c0.3,14,0.1,28,0.2,42
				c0.1,9,0.5,18,0.5,26.9c0,6.6-0.9,7.4-7.5,7.6c-1.8,0.1-3.6,0.4-5.5,0.4c-4.6-0.1-8.9-0.9-8.6-8.2c-23.4,13.9-44.9,14.9-60.8-9.4
				c-11-16.9-9.2-38.6,3.3-53.2C178.1,31.3,197.4,33.6,216.8,45.1z M219.4,79.7c0.2-13.3-9.7-23.5-23-23.6
				c-12.8-0.1-23.2,9.8-23.4,22.3c-0.2,13.9,9.9,24.7,23.1,24.8C209,103.3,219.2,93,219.4,79.7z"/>
			<path class="st0" d="M101.4,202.8c0,7.5,5.3,13.5,13.8,16.4c8.1,2.8,16,1.7,23.1-2.5c9.7-5.8,10.7-4.6,19.2,3.3
				c0.8,0.8,1.5,1.7,2.6,2.9c-7.9,8.4-17.5,13.1-28.5,15.4c-19.7,4-41.5-6.3-50.2-23.8c-14.7-29.5,7.6-63.7,40.8-62.4
				c24.2,0.9,42.4,19.2,42.7,42.8c0.1,6.7-1.1,7.9-7.7,8c-16.7,0-33.3,0-50,0C105.3,202.8,103.3,202.8,101.4,202.8z M141.1,186.9
				c-1.3-7.2-4.9-11.4-10-14.3c-10.2-5.7-24.6-1.4-28.7,8.5c-1.7,4.1-0.9,5.7,3.3,5.8c5.8,0.1,11.6,0,17.4,0
				S134.6,186.9,141.1,186.9z"/>
			<path class="st0" d="M261.2,78.5c0-11-0.1-22,0-33c0-6.4,0.8-7.1,7.1-7.4c2.8-0.2,5.7-0.4,8.5-0.1c1.5,0.1,3.8,0.7,4.4,1.7
				c2.4,4.9,5.6,3.2,9.1,1.7c9.1-4,18.5-6.3,28.6-4.2c11.9,2.5,21.6,13.3,21.9,25.3c0.4,17.1,0.6,34.3,0.7,51.4
				c0.1,5.7-1.4,7.1-7,7.2c-13.4,0.3-13.3,0.3-13.4-13.1c-0.1-11.2-0.2-22.3-0.6-33.5c-0.4-11.4-8-18.9-18.5-18.6
				c-11.8,0.3-19.4,7.7-19.5,19.5c-0.2,12.8-0.1,25.6,0,38.5c0,6.3-0.9,7.2-7.2,7.3c-13.3,0.1-13.6-0.2-13.7-13.6
				c0-4.8-0.2-9.7-0.2-14.5C261.2,88.1,261.2,83.3,261.2,78.5z"/>
			<path class="st0" d="M447.5,159c6.1-1.9,11.9-3.9,17.9-5.5c8.1-2.1,16.3-2,23.9,1.8c9.7,4.9,14.8,13.3,15.1,24.2
				c0.4,16.7,0.5,33.3,0.7,50c0.1,6.2-0.9,7.1-7.3,7.3c-13.5,0.6-13.5,0.6-13.5-12.8c0-11.2,0-22.3-0.2-33.5
				c-0.2-11.1-7.8-18.9-17.8-18.8c-12.4,0.1-20.2,7.4-20.3,19.2c-0.1,13.2-0.2,26.3-0.1,39.5c0,4.6-1.6,6.6-6.4,6.6
				c-13.7,0.1-14.3-0.2-14.3-14.1c0-20.7,0-41.3,0-62c0-6.2,0.8-6.9,6.9-7.1c1.7,0,3.3-0.1,5-0.3C443.3,152.8,444.4,153.3,447.5,159
				z"/>
			<path class="st0" d="M517.3,196.1c1-19.1,11.4-34.7,27.9-40.8c19.4-7.2,39.7-2.6,52.2,11.6c2.8,3.2,3,5.7-0.9,8.1
				c-1.7,1-3.3,2.2-5,3.3c-5.9,3.8-8.8,4-13.9-0.9c-9.1-8.9-22.3-5.9-29.3-0.5c-9.7,7.6-11.7,22.7-4.1,32.8
				c7.6,10.2,22.4,12.2,32.5,4.7c2.6-1.9,6.1-5.3,8.1-4.7c4.9,1.5,9.4,4.7,13.7,7.8c0.7,0.5,0.2,4.1-0.8,5.6
				c-4.7,6.9-11.6,10.7-19.5,13.1c-23.7,7.2-46.2-1.5-56.1-22.5C519.8,208.2,518.9,202,517.3,196.1z"/>
			<path class="st0" d="M210.5,151.6c9.5,0.2,18.3,2.6,26.3,7.4c5,2.9,5.1,4.4,1.8,9c-5.2,7.1-5.6,7.1-14,4.1
				c-3.7-1.3-7.6-2.4-11.5-3.2c-1.7-0.4-3.7-0.4-5.5,0c-4.2,0.8-9,2.6-9.1,7.1c-0.1,2.4,4,6,6.9,7.2c7,2.9,14.5,4.7,21.8,7.1
				c10.6,3.5,16.3,10.4,17,20.5c0.7,10.6-3.7,17.4-13.6,22.8c-18.5,10-35.7,5.2-52.6-4c-2.6-1.4-3.3-3.6-1.5-6.2
				c0.9-1.4,2-2.7,2.9-4.1c2.6-4.3,6-4.7,10.2-2.3c7.8,4.5,16.1,5.9,25,4.5c4.3-0.7,8-2.3,8.4-7c0.5-4.8-3.2-6.4-7.1-7.6
				c-7.8-2.4-15.6-4.7-23.3-7.5c-11.4-4.1-16.1-11.1-15.7-22.5c0.4-11,7.2-19.6,18-22.4C200,152.9,205.3,152.4,210.5,151.6z"/>
			<path class="st0" d="M306.7,217.1c0,3.8,0,6.9,0,10c-0.1,8-1.6,10.6-9.5,11.1c-6.3,0.5-13.1,0-19-2c-9.3-3.2-14.2-10.6-14.2-20.8
				c0-11.1,0.1-22.3-0.1-33.4c-0.1-7.2-0.9-9.9-8.7-9.4c-3.3,0.2-5.3-1.6-5.1-5.2c0.1-1.8,0-3.7,0-5.5c0.2-7.1,0.2-7.2,7.5-8.1
				c3.9-0.5,6.2-2.1,5.8-6.4c-0.2-2.6-0.1-5.3-0.1-8c0-6,0.8-6.8,6.9-7c0.7,0,1.3,0,2,0c10.4,0.2,11.4,1.2,11.4,11.5
				c0,8.7,1,9.7,9.6,10.1c0.3,0,0.7,0,1,0.1c13.6,0.7,10.6-1.8,12.2,12.6c0.5,4.3-1.7,6.1-5.9,6.1c-3.3,0-6.7,0-10,0
				c-5.9,0.1-6.9,1.1-6.9,7.2c0,8.2-0.1,16.3,0.1,24.5c0.2,11.7,5.9,16.2,17.3,13.8C302.7,217.8,304.1,217.6,306.7,217.1z"/>
			<path class="st0" d="M96.5,102.8c0-19,0-37.9,0-56.9c0-6.8,0.6-7.5,7.3-7.8c2.8-0.1,5.7-0.1,8.5,0.2c1.4,0.1,3.5,0.8,3.9,1.7
				c2.2,6,6,3.4,9.7,2.1c4.4-1.5,8.8-3.1,13.2-4.5c3.7-1.1,6.3-0.3,6.1,4.3c0,0.3,0.1,0.7,0.1,1c0.3,16.4,0.9,13.7-11.8,16.7
				c-9.7,2.3-15.4,9.8-15.4,20c0,11.5-0.1,23-0.2,34.5c0,6-1.1,7-6.9,7.2c-13.4,0.3-13.7,0-13.7-13.3c0-1.7,0-3.3,0-5
				C96.9,102.8,96.7,102.8,96.5,102.8z"/>
			<path class="st0" d="M627,71c14,0.1,25.5,11.5,25.5,25.3c0,13.5-12.3,25.5-25.8,25.3c-13.6-0.2-25.4-12.3-25.3-25.8
				C601.6,82.3,613.3,70.9,627,71z"/>
			<path class="st0" d="M635.8,195.3c0,11.8-0.1,23.6,0,35.4c0,4.4-1.7,6.2-6.2,6.3c-14.3,0.2-14.8-0.1-14.8-14.6
				c0-20.5,0-40.9,0-61.4c0-6.6,0.5-7.2,7.1-7.1c16.5,0.2,13.3-1.5,13.6,13.4c0.2,9.3,0,18.6,0,27.9
				C635.6,195.3,635.7,195.3,635.8,195.3z"/>
			<path class="st0" d="M599.4,29.4c13.3-5.3,19.4-16.4,26.3-29c3.9,15.3,13.6,23.6,27.3,28.8c-15.6,1.8-25,9.5-27.4,25.4
				C618.7,44.1,613.6,32.2,599.4,29.4z"/>
			<path class="st0" d="M545.1,285.8c0.1,13.1-9.2,22.8-22,22.8c-12.5,0.1-22-9.5-22.1-22.2c-0.1-13,9.4-23,21.9-23
				C535.3,263.4,545,273.2,545.1,285.8z M522.9,266.7c-10.6,0-18.3,8.3-18.3,19.6c0.1,11.2,7.9,19.2,18.7,19.1
				c10.8-0.1,18.4-8.3,18.3-19.5C541.4,274.6,533.7,266.7,522.9,266.7z"/>
			<path class="st0" d="M459.9,285.9c0,5.7,0.1,11.3-0.1,17c0,1.3-1.2,2.6-1.9,3.8c-0.5-1.2-1.5-2.4-1.6-3.7
				c-0.2-4.2-0.2-8.3-0.1-12.5c0.1-2.8-1-3.9-3.8-3.8c-5.7,0.1-11.3,0.1-17,0c-2.8-0.1-3.8,1.2-3.8,3.9c0.1,4.3,0.1,8.7-0.1,13
				c0,1.1-1,2.1-1.6,3.1c-0.6-1-1.8-1.9-1.8-2.9c-0.1-11.8-0.1-23.7,0-35.5c0-1,1-2.1,1.6-3.1c0.6,1.1,1.7,2.2,1.8,3.4
				c0.2,3.6,0.2,7.3,0.1,11c-0.1,2.6,0.8,4.1,3.6,4.1c5.8-0.1,11.7,0,17.5,0c2.6,0,3.5-1.2,3.4-3.7c-0.1-4-0.1-8,0.1-12
				c0.1-1,1.2-1.9,1.9-2.8c0.5,0.9,1.5,1.8,1.5,2.7C460,273.9,459.9,279.9,459.9,285.9L459.9,285.9z"/>
			<path class="st0" d="M673.4,286.8c-4.8,0-9.7,0.3-14.5-0.1c-4.9-0.4-6.2,1.6-6.1,6.2c0.2,11.4,0,11.4,11.3,11.4c4,0,8,0,12,0
				c0,0.6,0.1,1.3,0.1,1.9c-1.1,0.3-2.2,0.8-3.3,0.8c-6.3,0.1-12.6,0-19,0.1c-2.7,0-4.4-0.7-4.4-3.9c0.1-12.5,0-24.9,0-37.6
				c8.7,0,17.2,0,25.6,0c0,0.5,0,1.1,0.1,1.6c-1.8,0.2-3.6,0.4-5.5,0.5c-2,0.1-4,0-6,0c-12.1,0.3-10.8-2.7-10.9,11.8
				c0,3,1.2,4.2,4.1,4.1c4-0.1,8-0.1,12,0c1.5,0,3,0.4,4.5,0.6C673.5,285.2,673.5,286,673.4,286.8z"/>
			<path class="st0" d="M740.3,307.2c-4.3,0-8.6,0-12.9,0c-10.4,0-10.4,0-10.4-10.2c0-9.1-0.1-18.3,0.1-27.4c0-1.4,1.2-2.8,1.9-4.3
				c0.5,1.4,1.5,2.7,1.6,4.1c0.1,10,0.2,20,0,29.9c-0.1,4,1.3,5.4,5.2,5.1c3.6-0.3,7.3-0.1,11,0c1.3,0,2.5,0.4,3.8,0.7
				C740.3,305.8,740.3,306.5,740.3,307.2z"/>
			<path class="st0" d="M580.3,265.7c10.6,0,21.3,0,31.9,0c0,0.7,0,1.4,0,2.1c-3.1,0-6.3,0.2-9.4-0.1c-3.8-0.3-5,1.3-4.9,4.9
				c0.1,9.6,0.1,19.3,0,28.9c0,1.7-0.6,3.5-0.9,5.2c-0.7,0-1.4-0.1-2-0.1c0-12.7,0-25.4,0-39.2c-5.7,0-10.3,0-14.8,0
				C580.3,266.9,580.3,266.3,580.3,265.7z"/>
		</g>
	</g>
</g>
</svg>
