<?xml version="1.0" encoding="utf-8"?>
<!-- Generator: Adobe Illustrator 25.2.1, SVG Export Plug-In . SVG Version: 6.00 Build 0)  -->
<svg version="1.1" id="Layer_1" xmlns="http://www.w3.org/2000/svg" xmlns:xlink="http://www.w3.org/1999/xlink" x="0px" y="0px"
	 viewBox="0 0 200 64.9" style="enable-background:new 0 0 200 64.9;" xml:space="preserve">
<style type="text/css">
	.st0{fill:#D2C6A9;}
</style>
<path class="st0" d="M8.1,38.6c-1.1-0.2-2.2-0.3-3.2-0.5c-4.3-0.9-6.3-5.5-3.7-9c1.4-1.8,1.3-3.1,0.1-5c-1.9-3.1-1.7-7,0.5-9.9
	c2-3.2,5.7-4.8,9.4-4.2l2,0.3c1.4,0.4,2.8-0.2,3.5-1.4c1.3-1.8,3.4-2.3,5.6-2.1c0.3,0,0.6,0.1,0.9,0.4c0.8,1.1,0.4,2.5,0.4,3.7
	c-0.1,0.9-0.8,1.2-1.6,1.4c-2.1,0.5-2.3,0.7-1.4,2.8c1,2.3,1.6,4.7,0.8,7.1c-1.7,5.5-6.6,8.3-12.6,7.3c-1.9-0.3-3,0.6-2.4,2.1
	c0.4,1,1.3,1.1,2.1,1.2c2.1,0.2,4.2,0.2,6.2,0.4c1.1,0.1,2.2,0.1,3.3,0.2c2.8,0.2,5.1,2.1,6,4.8C24.2,39,24,39.7,23,40
	c-0.9,0.2-1.8,0.5-2.6,0.7c-1,0.4-2.1,0.1-2.8-0.7c-0.6-0.7-1.6-1.1-2.5-1.2L8.1,38.6z M15.4,19.8c0-2.4-2-4.4-4.4-4.4
	c-2.5,0-4.6,1.9-4.8,4.4c0.1,2.4,2.1,4.3,4.6,4.3c2.4,0.1,4.5-1.8,4.6-4.2C15.4,19.8,15.4,19.8,15.4,19.8z"/>
<path class="st0" d="M119.1,33c-0.9,0-1.8,0-2.7,0c-1.1,0-2-0.1-2.4-1.3c-0.1-0.5-0.4-0.5-0.8-0.3s-0.6,0.3-0.8,0.5
	c-6.4,4-14.4,0.7-16.3-6.9c-1.3-4.5,0-9.4,3.6-12.6c3-2.8,6.6-3,10.4-1.7c1,0.3,2,0.7,2.9,1.2s1.1,0.2,1.1-0.7c0-2.7,0-5.4,0-8.2
	c0-1.9,0.3-2.2,2.2-2.2c1,0,2.1,0.1,3.1,0.1c0.4,0.4,0.6,1,0.6,1.6c0,9.6,0,19.2,0,28.7C120.1,31.9,119.8,32.7,119.1,33z
	 M107.8,15.5c-3.2-0.1-5.9,2.4-6,5.6c0,0.1,0,0.2,0,0.4c-0.1,3.4,2.5,6.2,5.9,6.3c0.1,0,0.2,0,0.3,0c3.4-0.1,6.1-2.8,6.1-6.2
	c0.1-3.3-2.6-6.1-5.9-6.1C108.1,15.5,108,15.5,107.8,15.5z"/>
<path class="st0" d="M200,53v9.4c0,1.6-0.3,1.9-1.9,1.9c-0.8,0-1.6,0-2.4-0.1s-1.4-0.3-1.6-1c-0.2-1-0.7-0.7-1.3-0.3
	c-1.7,1.1-3.6,1.8-5.6,1.9c-4.9,0.1-8.4-2.3-10.5-6.6c-2.4-5.1-1.1-11.1,3.1-14.7c3.5-2.9,8.5-3.2,12.4-0.8c0.7,0.5,1.4,1.2,1.9-0.3
	c0.1-0.3,0.5-0.5,0.8-0.7c0.4-0.3,0.9-0.4,1.4-0.3c3.6,0.1,3.6,0.1,3.6,3.8L200,53z M194,52.8c0-3.4-2.7-6.1-6-6.2
	c-3.4,0-6.1,2.7-6.2,6c-0.2,3.4,2.3,6.3,5.7,6.5c3.4,0.2,6.3-2.3,6.5-5.7C194,53.2,194,53,194,52.8z"/>
<path class="st0" d="M65.1,21.9c0,3.2,0,6.3,0,9.5c0,1.1-0.4,1.7-1.6,1.6c-1,0.1-2,0.1-3,0c-0.7-0.1-1.4-0.3-1.5-1.1
	c-0.1-0.8-0.5-0.7-1-0.4c-0.9,0.5-1.8,1-2.8,1.4c-4.8,1.8-10.1-0.1-12.7-4.5c-3-4.9-2.4-12.4,2.6-16.4c2.5-2.1,5.9-2.8,9-1.8
	c1.3,0.4,2.5,0.9,3.8,1.5c0.6,0.3,1,0.4,1.2-0.4c0.2-0.7,0.9-1.1,1.6-1c0.9,0,1.8,0,2.7,0c1.2-0.1,1.7,0.5,1.7,1.7
	C65.1,15.3,65.1,18.6,65.1,21.9z M53,15.5c-3.2-0.1-6,2.4-6.1,5.7c0,0.1,0,0.2,0,0.3c-0.2,3.4,2.4,6.3,5.8,6.4
	c3.4,0.2,6.3-2.4,6.4-5.8c0-0.2,0-0.5,0-0.7c0-3.3-2.6-6-5.9-6C53.2,15.5,53.1,15.5,53,15.5z"/>
<path class="st0" d="M109.3,47.2V62c0,2.1-0.2,2.3-2.3,2.3c-0.8,0-1.6,0-2.3,0s-1.4-0.3-1.4-1.2c0-0.9-0.4-0.9-1.1-0.4
	c-2.8,2.2-6.6,2.7-9.9,1.4c-3-1.1-5.4-3.5-6.5-6.5c-1.6-3.9-1.1-8.4,1.2-11.9c2.4-4,7.3-5.7,11.6-4.1c0.8,0.3,1.6,0.5,2.4,0.9
	c1,0.4,2.1,1.3,2.7-0.6c0-0.2,0.2-0.3,0.4-0.4c1-0.7,4.2-0.4,5.1,0.5C109.3,43.8,109.3,45.5,109.3,47.2z M91.1,52.7
	c-0.1,3.4,2.6,6.2,5.9,6.2c3.4,0.1,6.2-2.6,6.2-5.9s-2.6-6.2-5.9-6.2S91.1,49.3,91.1,52.7L91.1,52.7z"/>
<path class="st0" d="M35.6,55.1h-6.9c-1.3,0-1.4,0.3-0.8,1.4c1.3,2.3,4.7,3.6,7.5,2.7c0.9-0.3,1.8-0.7,2.6-1.1c1.8-1,2.1-1,3.6,0.3
	c2.2,1.9,2.2,1.9-0.1,3.6c-6.9,5.4-17.2,2.7-20.2-5.1c-2.2-6.2,0.9-13,7.1-15.2c0.8-0.3,1.7-0.5,2.6-0.6c5.9-0.8,11.6,2.8,13.4,8.5
	c0.3,1.2,0.5,2.4,0.4,3.6c0,1.4-0.5,1.9-1.9,1.9C40.5,55.1,38.1,55.1,35.6,55.1L35.6,55.1z M32.8,50.4h4.3c0.6,0,0.8-0.2,0.5-0.8
	c-0.5-1.1-1.3-2.1-2.4-2.6c-2.6-1.4-6.2-0.4-7.4,2.1c-0.4,0.9-0.5,1.5,0.8,1.4S31.4,50.4,32.8,50.4z"/>
<path class="st0" d="M114.5,52.7c0-3.1,0-6.3,0-9.4c-0.2-0.9,0.4-1.8,1.3-2c0.2,0,0.3,0,0.5,0c0.9,0,1.8,0,2.7,0
	c0.5,0,1,0.1,1.2,0.5c0.6,1.4,1.5,0.8,2.4,0.5c2.3-1,4.9-1.4,7.4-1.1c3.4,0.7,6,3.6,6.2,7.1c0.2,4.6,0.2,9.2,0.2,13.9
	c0,1.8-0.2,2-1.9,2.1c-4.9,0.3-4,0-4.1-3.8c0-2.9,0-5.8-0.1-8.7c-0.2-4.5-4.2-6.5-8-4.1c-1.3,0.9-2,2.3-1.8,3.9c0,3.5,0,6.9,0,10.3
	c0,2.1-0.4,2.4-2.5,2.4h-0.7c-2.6-0.1-2.9-0.4-2.9-3C114.6,58.4,114.6,55.6,114.5,52.7L114.5,52.7z"/>
<path class="st0" d="M86.1,19.2c-0.6-5.6-10.4-4.5-9.7,1.3c0.2,3.5-0.1,7-0.1,10.5c0,1.9-0.2,2.1-2.1,2.1c-3.8,0-3.8,0-3.8-3.7
	c0-5.5-0.1-11-0.1-16.5c0-2.3,0-2.4,2.3-2.6c1.4-0.1,2.9-0.6,3.9,1.1c0.3,0.5,0.7,0.1,1.1,0c5.3-2.6,12.2-2.1,14.4,4.1
	c0,0,0,0.1,0,0.1c0,0,0,0,0,0c0.4,5.1,0.2,10.3,0.3,15.4c0.2,1-0.4,1.9-1.4,2.1c-0.2,0-0.3,0-0.5,0c-1.4-0.2-4.2,0.7-4.1-1.5
	C86.3,27.5,86.8,23.2,86.1,19.2z"/>
<path class="st0" d="M139.7,52.9c0.2-5.2,2.8-9.3,7.2-11c5.3-2,10.7-0.9,14.3,2.9c1.2,1.3,1.2,1.9-0.3,2.9l-1.1,0.7
	c-1.6,1-2.4,1-3.8-0.2c-1.9-1.8-4.7-2.1-6.9-0.8c-2.1,1.1-3.3,3.3-3.1,5.7c0.1,2.7,2.1,5,4.7,5.7c2.1,0.6,4.3-0.1,5.7-1.7
	c0.6-0.9,1.9-1,2.7-0.4c0.1,0,0.1,0.1,0.2,0.1c0.7,0.5,1.4,0.9,2.2,1.4c0.6,0.2,0.9,0.9,0.7,1.5c-0.1,0.2-0.2,0.3-0.3,0.5
	c-0.4,0.6-0.9,1.2-1.4,1.7c-6.6,5.2-16.3,3.6-19.8-4.8c-0.3-0.7-0.4-1.4-0.6-2.1C139.8,54.3,139.7,53.6,139.7,52.9z"/>
<path class="st0" d="M56.8,41.1c2.6-0.2,5.2,0.5,7.4,1.9c1.4,0.9,1.5,1.3,0.4,2.7c-1.6,2-1.6,1.9-4,1.1c-1.6-0.5-3.2-1.3-5-0.7
	c-0.4,0.1-0.8,0.4-1.2,0.6c-0.8,0.6-0.9,1.3,0,2c0.6,0.4,1.2,0.8,1.9,1c2,0.6,4,1.2,6,1.9c2.3,0.8,3.8,2.9,3.9,5.4
	c0.3,2.5-1,4.9-3.3,6.1c-5.2,3-10.1,1.9-14.9-0.8c-0.9-0.5-1.1-1.2-0.3-2.1c0.2-0.3,0.4-0.6,0.7-0.9c1.1-1.4,1.5-1.5,3.1-0.7
	c1.9,1.1,4.1,1.5,6.3,1.2c0.4-0.1,0.8-0.2,1.2-0.3c0.7-0.2,1.2-0.9,1.2-1.6c0-0.7-0.5-1.3-1.2-1.5c-2.2-0.7-4.3-1.3-6.5-2.1
	c-3.6-1.3-5.1-3.6-4.8-6.8c0.4-3.3,3-5.8,6.3-6.2C54.8,41.1,55.8,41,56.8,41.1z"/>
<path class="st0" d="M76.9,52.2c0,1.2,0,2.4,0,3.5c0.1,2.6,1.4,3.6,3.9,3.2c2.1-0.4,2.1-0.4,2.1,1.8c0,3.4-0.7,4-4.2,4.1
	s-6.3-1.6-7.3-4.3c-0.2-0.6-0.3-1.1-0.3-1.7c0-3.1,0-6.2,0-9.2c0-2.1-0.2-2.3-2.3-2.6c-0.4,0-0.8-0.1-1.1-0.4
	c-0.4-0.5-0.5-4.3,0-4.8c0.5-0.4,1.1-0.6,1.7-0.4c1.4,0.1,1.8-0.5,1.7-1.8c0-0.5,0-1,0-1.5c0-2.3,0.1-2.4,2.5-2.4H74
	c2.6,0.1,2.8,0.4,2.8,3c0,0.5,0,0.9,0,1.4c0,0.7,0.5,1.2,1.1,1.2c0.1,0,0.1,0,0.2,0c1.1,0,2.2,0.2,3.2,0.2c0.3,0,0.8,0,0.9,0.2
	c1,1.2,0.4,2.8,0.5,4.2c0,1-0.9,1-1.6,1c-0.9,0-1.8,0-2.7,0c-1.1,0-1.7,0.5-1.7,1.6s0,2.5,0,3.7L76.9,52.2z"/>
<path class="st0" d="M26.1,10.7c1.6-0.7,3.2-0.4,4.8-0.3c0.2,0,0.4,0.1,0.6,0.3c0.6,1.5,1.6,0.9,2.6,0.5c1.2-0.4,2.4-0.8,3.6-1.2
	c0.9-0.3,1.6-0.2,1.7,1c0.1,1.1,0.2,2.3,0.1,3.4c0,1.1-0.9,1.4-1.9,1.6c-1.4,0.1-2.7,0.7-3.8,1.5c-1,0.9-1.6,2.1-1.6,3.5
	c-0.1,3.3-0.1,6.6-0.1,9.9c0,1.8-0.3,2.1-2.2,2.1H28c-0.6-0.1-1.3-0.3-1.8-0.7l-0.1-0.4c-0.3-6.8-0.2-13.6-0.2-20.5
	C25.9,11.2,26,10.9,26.1,10.7z"/>
<path class="st0" d="M169.2,19.1c3.9,0,7,3.1,7.1,6.9c0,0.1,0,0.2,0,0.3c0,3.5-3.5,6.9-7.1,6.9c-3.8-0.2-6.9-3.3-7-7.1
	C162.2,22.2,165.4,19.2,169.2,19.1z"/>
<path class="st0" d="M165.8,52.4c0-3,0.1-6.1,0-9.1c0-1.4,0.5-2,1.8-2c1.1,0,2.2,0.1,3.2,0.1c0.5,0,0.9,0.4,0.9,0.9
	c0,0.1,0,0.3,0,0.4c0,6.6,0.1,13.2,0.1,19.7c0,1.5-0.4,1.9-1.9,1.9c-4.1,0-4.2-0.1-4.2-4.2c0-0.5,0-1.1,0-1.6
	C165.8,56.5,165.8,54.5,165.8,52.4z"/>
<path class="st0" d="M168.8,0c0.1,0.2,0.3,0.5,0.4,0.7c0.8,3.1,3.2,5.6,6.3,6.6c0.4,0.1,0.9,0.1,0.9,0.7s-0.5,0.5-0.9,0.6
	c-3.6,0.5-5.3,2.1-6.1,5.5c-0.1,0.3,0.1,0.8-0.4,0.9s-0.6-0.4-0.8-0.7c-0.3-0.4-0.5-0.8-0.7-1.1c-0.8-2.2-2.7-3.9-5-4.6
	c-0.3-0.1-0.8-0.2-0.8-0.6c0-0.4,0.5-0.5,0.8-0.6c2.4-0.9,3.8-2.7,5-4.8C167.8,1.8,168.2,1,168.8,0z"/>
</svg>
