<?xml version="1.0" encoding="utf-8"?>
<!-- Generator: Adobe Illustrator 16.0.0, SVG Export Plug-In . SVG Version: 6.00 Build 0)  -->
<!DOCTYPE svg PUBLIC "-//W3C//DTD SVG 1.1//EN" "http://www.w3.org/Graphics/SVG/1.1/DTD/svg11.dtd">
<svg version="1.1" id="Layer_1" xmlns="http://www.w3.org/2000/svg" xmlns:xlink="http://www.w3.org/1999/xlink" x="0px" y="0px"
	 width="1458px" height="1316px" viewBox="0 0 1458 1316" enable-background="new 0 0 1458 1316" xml:space="preserve">
<path fill="#A45C4C" d="M738.664,757.934c153.074-1.71,278.552,120.994,280.263,274.068c0.002,0.146,0.003,0.294,0.005,0.441
	c0,3.701,0,7.402,0,11.309c0,139.414-138.797,274.305-281.501,272.248c-151.631-7.703-272.139-130.177-277.388-281.912
	C462.712,881.732,586.291,759.248,738.664,757.934z"/>
<path fill="#A45C4C" d="M723.654,0c5.572,9.359,10.584,19.041,15.01,28.993c32.498,124.421,126.858,223.29,249.629,261.555
	c14.805,4.729,34.956,5.141,33.723,27.76c-1.233,22.618-20.563,20.563-36.396,21.796c-140.647,18.301-211.588,82.25-243.46,220.02
	c-3.084,12.954,2.057,32.077-16.656,35.572c-18.711,3.496-22.413-14.599-30.021-26.525c-10.461-14.611-20.006-29.857-28.582-45.648
	C633.923,434.65,560.123,367.129,468.679,342.16c-12.338-4.112-31.666-8.02-32.9-23.441c-1.233-15.422,18.301-18.712,31.05-23.441
	c93.56-34.545,150.106-107.336,198.017-189.792C682.528,73.408,700.213,41.125,723.654,0z"/>
</svg>
