<svg id="Layer_1" data-name="Layer 1" xmlns="http://www.w3.org/2000/svg" viewBox="0 0 28.52 64"><defs><style>.cls-1{fill:#ac8c3c;}</style></defs><path class="cls-1" d="M14.73,36.86A13.48,13.48,0,0,1,28.36,50.21c0,.18,0,.36,0,.55,0,6.78-6.75,13.34-13.69,13.24A14.22,14.22,0,0,1,1.18,50.29,13.67,13.67,0,0,1,14.73,36.86Z"/><path class="cls-1" d="M14,0a13.39,13.39,0,0,1,.73,1.41A18.12,18.12,0,0,0,26.87,14.13c.72.23,1.7.25,1.64,1.35s-1,1-1.77,1.06c-6.84.89-10.29,4-11.84,10.7-.15.63.1,1.56-.81,1.73s-1.09-.71-1.46-1.29a21.17,21.17,0,0,1-1.39-2.22A14.3,14.3,0,0,0,1.6,16.64C1,16.44.06,16.25,0,15.5s.89-.91,1.51-1.14c4.55-1.68,7.3-5.22,9.63-9.23C12,3.57,12.86,2,14,0Z"/></svg>