<?xml version="1.0" encoding="utf-8"?>
<!-- Generator: Adobe Illustrator 16.0.0, SVG Export Plug-In . SVG Version: 6.00 Build 0)  -->
<!DOCTYPE svg PUBLIC "-//W3C//DTD SVG 1.1//EN" "http://www.w3.org/Graphics/SVG/1.1/DTD/svg11.dtd">
<svg version="1.1" id="Layer_1" xmlns="http://www.w3.org/2000/svg" xmlns:xlink="http://www.w3.org/1999/xlink" x="0px" y="0px"
	 width="512px" height="512px" viewBox="0 0 512 512" enable-background="new 0 0 512 512" xml:space="preserve">
<g>
	<path fill="#FFFFFF" d="M261.4,98.6c-84.5,0-153.2,68.7-153.2,153.2c0,27,7,53.3,20.5,76.6l-21.7,79.4l81.2-21.3
		c22.4,12.2,47.6,18.6,73.2,18.6h0.1c84.4,0,153.2-68.7,153.2-153.2c0-40.9-15.9-79.4-44.8-108.4C340.9,114.6,302.4,98.6,261.4,98.6
		z"/>
	<linearGradient id="SVGID_1_" gradientUnits="userSpaceOnUse" x1="255.9998" y1="0" x2="255.9997" y2="512.0005">
		<stop  offset="0" style="stop-color:#1BD741"/>
		<stop  offset="0.9" style="stop-color:#009401"/>
	</linearGradient>
	<path fill="url(#SVGID_1_)" d="M256,0C114.6,0,0,114.6,0,256s114.6,256,256,256s256-114.6,256-256S397.4,0,256,0z M261.4,405.1
		L261.4,405.1c-25.7,0-50.9-6.4-73.3-18.6l-81.2,21.3l21.7-79.4c-13.4-23.2-20.5-49.6-20.5-76.6c0-84.5,68.8-153.2,153.2-153.2
		c41,0,79.5,16,108.4,44.9c28.9,29,44.9,67.4,44.8,108.4C414.6,336.3,345.9,405.1,261.4,405.1z"/>
</g>
<linearGradient id="SVGID_2_" gradientUnits="userSpaceOnUse" x1="261.4221" y1="124.4688" x2="261.4221" y2="379.1802">
	<stop  offset="0" style="stop-color:#1BD741"/>
	<stop  offset="0.9" style="stop-color:#009401"/>
</linearGradient>
<path fill="url(#SVGID_2_)" d="M261.5,124.5c-70.2,0-127.4,57.1-127.4,127.3c0,24.1,6.7,47.5,19.5,67.8l3,4.8l-12.9,47l48.2-12.6
	l4.7,2.8c19.6,11.6,42,17.7,64.8,17.7h0.1c70.2,0,127.3-57.1,127.4-127.3c0-34-13.2-66-37.3-90.1S295.5,124.5,261.5,124.5z
	 M336.4,306.5c-3.2,8.9-18.5,17.1-25.8,18.2c-6.6,1-14.9,1.4-24.1-1.5c-5.6-1.8-12.7-4.1-21.8-8.1c-38.4-16.6-63.5-55.2-65.4-57.8
	s-15.6-20.8-15.6-39.6c0-18.8,9.9-28.1,13.4-31.9c3.5-3.8,7.7-4.8,10.2-4.8s5.1,0,7.3,0.1c2.4,0.1,5.5-0.9,8.6,6.6
	c3.2,7.7,10.8,26.5,11.8,28.4c1,1.9,1.6,4.2,0.3,6.7c-1.3,2.6-5.5,8.1-9.6,13.1c-1.7,2.1-3.9,4-1.7,7.8c2.2,3.8,9.9,16.4,21.3,26.5
	c14.6,13,27,17.1,30.8,19c3.8,1.9,6.1,1.6,8.3-1c2.2-2.6,9.6-11.2,12.1-15s5.1-3.2,8.6-1.9c3.5,1.3,22.3,10.5,26.2,12.4
	c3.8,1.9,6.4,2.9,7.3,4.5C339.6,289.9,339.6,297.6,336.4,306.5z"/>
</svg>
